<mxfile host="app.diagrams.net" modified="2023-07-04T18:03:51.484Z" agent="Mozilla/5.0 (Windows NT 10.0; Win64; x64) AppleWebKit/537.36 (KHTML, like Gecko) Chrome/113.0.0.0 Safari/537.36 OPR/99.0.0.0" version="21.5.2" etag="eeYMXb2r5CeaHfaDuqIo" type="github">
  <diagram name="Страница 1" id="QtQXmldiNTKPICtazsVT">
    <mxGraphModel>
      <root>
        <mxCell id="0" />
        <mxCell id="1" parent="0" />
      </root>
    </mxGraphModel>
  </diagram>
</mxfile>
